<svg height="200" viewBox="0 0 200 200" width="200" xmlns="http://www.w3.org/2000/svg"><path d="M100 20.001V88c6.625 0 12 5.374 12 12h68c0-44.18-35.82-79.999-80-79.999z" fill="#43D3E8"/><path d="M112 100c0 2.186-.594 4.229-1.615 5.995l58.889 33.999A79.607 79.607 0 0 0 180 100h-68z" fill="#F96232"/><g fill="#242D3C"><path d="M100 199.998C44.859 199.998 0 155.139 0 100S44.859.001 100 .001 200 44.861 200 100c0 55.139-44.859 99.998-100 99.998zm0-191.997C49.272 8.001 8 49.272 8 100c0 50.729 41.272 91.998 92 91.998 50.729 0 92-41.27 92-91.998S150.729 8.001 100 8.001z"/><path d="M136.532 28.716l6.928 4-5.598 9.696-6.928-4zM96 20.001h8v11.2h-8zm-32.537 8.716l5.6 9.698-6.929 4-5.6-9.698zM32.72 56.537l9.698 5.6-4 6.927-9.698-5.6zM20.001 96.001H31.2v8H20.001zm18.417 34.933l4 6.928-9.697 5.598-4-6.928zm23.717 26.646l6.928 4-5.6 9.697-6.927-4zm33.866 11.222h8v11.196h-8zm41.861-11.226l5.599 9.697-6.928 4-5.599-9.697zm23.733-26.639l9.697 5.6-4 6.928-9.698-5.6zm7.207-34.938h11.196v8h-11.196zm-1.521-39.467l4 6.928-9.696 5.598-4-6.928zM100 116c-8.822 0-16-7.178-16-16s7.178-16 16-16 16 7.178 16 16-7.178 16-16 16zm0-24c-4.411 0-8 3.589-8 8s3.589 8 8 8 8-3.589 8-8-3.589-8-8-8z"/><path d="M112 96.001h30.4v8H112zM96 57.6h8V88h-8z"/></g></svg>