<svg height="200" viewBox="0 0 200 200" width="200" xmlns="http://www.w3.org/2000/svg"><path d="M183.674 161.81H16.331V61.25a8.62 8.62 0 0 1 2.553-6.143 8.58 8.58 0 0 1 6.135-2.547h149.96c2.313 0 4.495.903 6.144 2.545a8.648 8.648 0 0 1 2.551 6.144V161.81zm-160.676-6.666h154.009V61.25a2.023 2.023 0 0 0-2.028-2.022H25.019c-.536 0-1.039.207-1.411.584a2.012 2.012 0 0 0-.611 1.438v93.894z" fill="#242D3C"/><path fill="#43D3E8" d="M32.556 68.781H167.45v89.695H32.556z"/><path d="M189.518 176.106H10.482a10.448 10.448 0 0 1-7.406-3.061A10.403 10.403 0 0 1 0 165.625v-10.481h200v10.481c0 2.803-1.089 5.436-3.067 7.415a10.452 10.452 0 0 1-7.415 3.066zM6.666 161.81v3.815c0 1.021.396 1.979 1.113 2.695a3.819 3.819 0 0 0 2.704 1.117h179.035a3.813 3.813 0 0 0 2.708-1.12 3.782 3.782 0 0 0 1.107-2.692v-3.815H6.666z" fill="#242D3C"/><path fill="#F96232" d="M100 55.895L56.667 27.227v57.334h86.667V27.227z"/><path d="M146.668 87.894H53.333v-64h93.334v64zM60 81.228h80V30.56H60v50.668z" fill="#242D3C"/><path fill="#242D3C" d="M100 59.89L54.827 30.007l3.678-5.561L100 51.896l41.495-27.45 3.679 5.561zm19.11 4.645l26.061 17.24-3.678 5.56-26.062-17.24zm-38.226.005l3.678 5.559-26.061 17.243-3.679-5.56zM68 103.519h6.667v24.001H68zm57.333 0H132v24.001h-6.667zm-28.666 12h6.666v24.001h-6.666z"/></svg>