<svg height="200" viewBox="0 0 200 200" width="200" xmlns="http://www.w3.org/2000/svg"><g fill="#242D3C"><path d="M33.515 200v-24.957H17.357V19.622h135.701v155.421H58.471L33.515 200zm-9.426-31.689h16.157v15.437l15.438-15.437h90.641V26.354H24.089v141.957z"/><path d="M153.058 26.354H17.357V0h135.701v26.354zM24.089 19.622h122.236V6.732H24.089v12.89z"/><path d="M32.842 9.811h6.732v6.732h-6.732zm13.464 0h6.732v6.732h-6.732zm13.466 0h6.732v6.732h-6.732z"/></g><path d="M99.974 35.106h37.599v6.732H99.974zm0 13.079h37.599v6.733H99.974zm0 13.08h37.599v6.734H99.974zm0 13.081h37.599v6.732H99.974zm0 13.08h37.599v6.733H99.974zm-67.132 13.08h104.731v6.731H32.842zm0 13.08h104.731v6.731H32.842zm0 13.08h104.731v6.731H32.842zm0 13.08h104.731v6.732H32.842zm0 13.08h104.731v6.732H32.842z" fill="#242D3C"/><path fill="#43D3E8" d="M32.842 35.106h59.051v59.053H32.842z"/><g fill="#FFF"><path d="M76.056 83.483h-6.732V56.891c0-1.17-.455-2.269-1.282-3.096a4.34 4.34 0 0 0-3.092-1.281h-5.163a4.354 4.354 0 0 0-3.097 1.282 4.352 4.352 0 0 0-1.279 3.094v26.593h-6.732V56.891c0-2.968 1.155-5.758 3.252-7.854a11.04 11.04 0 0 1 7.856-3.254h5.163a11.03 11.03 0 0 1 7.854 3.254 11.032 11.032 0 0 1 3.252 7.854v26.592z"/><path d="M48.679 61.265h27.377v6.734H48.679z"/></g><path fill="#43D3E8" d="M171.881 38.472l-7.398 7.396v111.017h14.794V45.868z"/><path d="M182.643 160.251h-21.525V44.474l10.764-10.762 10.762 10.762v115.777zm-14.793-6.732h8.062V47.263l-4.03-4.03-4.031 4.03v106.256z" fill="#242D3C"/><path d="M182.643 160.251h-21.525V44.474l10.764-10.762 10.762 10.762v115.777zm-14.793-6.732h8.062V47.263l-4.03-4.03-4.031 4.03v106.256z" fill="#242D3C"/><path d="M171.881 175.043a10.688 10.688 0 0 1-7.609-3.151 10.695 10.695 0 0 1-3.154-7.612v-10.761h21.525v10.761c0 2.876-1.12 5.58-3.152 7.612s-4.735 3.151-7.61 3.151zm-4.031-14.792v4.028c0 1.077.42 2.09 1.183 2.852 1.521 1.521 4.175 1.521 5.697 0a4.002 4.002 0 0 0 1.182-2.852v-4.028h-8.062z" fill="#242D3C"/></svg>